:SAMPLES-PER-SECOND 30
:FULLY-SPECIFIED
:DEGREES
62
root  12.517 40.0364 0.138587 -121.301 -88.3721 117.303
RightUpLeg  4.23163 -8.43088 -6.02183
RightLeg  3.85655 8.7519 -0.687725
RightFoot  -4.21231 -0.171581 2.15412
RightToes  2.21189e-009 0 -3.6325e-017
Spine  4.55939 -0.288872 2.30047
Spine1  3.20717 0.53725 -3.50914
HEad  -6.5319 -6.97117 -4.0771
LeftShoulder1  0.207733 1.19347 -0.682768
LeftArm  -23.0116 -1.85773 -19.2149
LeftForeArm  0.0276125 2.8464 3.28203
LeftHand  -0.0607937 2.63818 1.62489
RightShoulder  0.144265 -1.58514 -1.44281
RightArm  -11.3495 1.85466 13.8902
RightForeArm  -4.91208 -2.7051 -3.33322
RightHand  -0.265389 5.91005 -3.05083
LeftUpLeg  3.9401 7.00717 3.76235
LeftLeg  1.69279 -3.15524 0.539909
LeftFoot  -1.38891 0.0790871 -1.0404
LeftToes  -3.01956e-010 3.07132e-011 1.04116e-011
63
root  12.5167 40.0363 0.138242 -123.623 -88.3654 119.61
RightUpLeg  4.251 -8.39084 -5.97835
RightLeg  3.82493 8.76836 -0.71015
RightFoot  -4.17139 -0.171051 2.14591
RightToes  2.21189e-009 0 -3.6325e-017
Spine  4.60996 -0.269785 2.44367
Spine1  3.13117 0.594231 -3.69563
HEad  -6.50647 -6.93844 -3.94798
LeftShoulder1  0.208214 1.11907 -0.585068
LeftArm  -23.0759 -1.74449 -19.236
LeftForeArm  0.300269 2.76415 3.32222
LeftHand  -0.0616567 2.72724 1.45969
RightShoulder  0.143629 -1.62001 -1.45292
RightArm  -11.3435 1.81449 13.9351
RightForeArm  -4.74216 -2.6475 -3.33544
RightHand  -0.247092 5.73762 -2.89924
LeftUpLeg  3.96415 7.05232 3.81427
LeftLeg  1.71581 -3.15443 0.519532
LeftFoot  -1.41611 0.077641 -1.01375
LeftToes  -3.01956e-010 3.07132e-011 1.04116e-011
64
root  12.5164 40.0362 0.141966 -123.508 -88.3872 119.478
RightUpLeg  4.26853 -8.38991 -5.97083
RightLeg  3.83022 8.75248 -0.708291
RightFoot  -4.16152 -0.170255 2.13355
RightToes  2.21189e-009 0 -3.6325e-017
Spine  4.56244 -0.287264 2.4474
Spine1  3.25089 0.570798 -3.65505
HEad  -6.41081 -6.89376 -3.92531
LeftShoulder1  0.209882 1.17009 -0.584986
LeftArm  -23.0606 -1.74557 -19.2455
LeftForeArm  0.355588 2.78787 3.32634
LeftHand  -0.0587712 2.40491 1.3056
RightShoulder  0.143012 -1.60539 -1.44842
RightArm  -11.4461 1.78397 13.9256
RightForeArm  -4.53284 -2.5326 -3.3665
RightHand  -0.236474 5.99599 -2.73806
LeftUpLeg  3.97173 7.08251 3.8424
LeftLeg  1.73473 -3.19075 0.494593
LeftFoot  -1.40427 0.0793067 -1.03401
LeftToes  -3.01956e-010 3.07132e-011 1.04116e-011
65
root  12.519 40.036 0.144249 -123.487 -88.3765 119.47
RightUpLeg  4.23573 -8.40788 -5.98888
RightLeg  3.85355 8.78349 -0.690745
RightFoot  -4.16785 -0.169689 2.12478
RightToes  2.21189e-009 0 -3.6325e-017
Spine  4.49349 -0.26193 2.44844
Spine1  3.33306 0.59666 -3.63783
HEad  -6.38245 -6.91369 -3.85376
LeftShoulder1  0.212492 1.14006 -0.589771
LeftArm  -23.0651 -1.81138 -19.2398
LeftForeArm  0.590852 2.93301 3.35653
LeftHand  -0.0541733 1.96778 1.24603
RightShoulder  0.142459 -1.64444 -1.32412
RightArm  -11.462 1.78623 13.8093
RightForeArm  -4.51081 -2.45153 -3.36417
RightHand  -0.240911 6.0371 -2.77611
LeftUpLeg  3.96708 7.08635 3.83758
LeftLeg  1.70295 -3.20699 0.476766
LeftFoot  -1.38024 0.078165 -1.00913
LeftToes  -3.01956e-010 3.07132e-011 1.04116e-011
66
root  12.5267 40.0358 0.147881 -122.88 -88.37 118.784
RightUpLeg  4.30179 -8.43666 -6.03614
RightLeg  3.88313 8.83025 -0.671176
RightFoot  -4.16604 -0.166067 2.06858
RightToes  2.21189e-009 0 -3.6325e-017
Spine  4.65706 -0.284222 2.40147
Spine1  3.23466 0.561201 -3.57331
HEad  -6.29849 -6.77495 -3.85605
LeftShoulder1  0.215796 1.12707 -0.676655
LeftArm  -22.9205 -1.7495 -19.1448
LeftForeArm  0.253873 2.8416 3.24571
LeftHand  -0.0526204 2.37514 1.36498
RightShoulder  0.142075 -1.61875 -1.37637
RightArm  -11.4712 1.78541 13.8781
RightForeArm  -4.40401 -2.42941 -3.37452
RightHand  -0.242968 5.80973 -2.84044
LeftUpLeg  4.03673 7.06521 3.8126
LeftLeg  1.70355 -3.18193 0.495222
LeftFoot  -1.39798 0.0811736 -1.04719
LeftToes  -3.01956e-010 3.07132e-011 1.04116e-011
67
root  12.5288 40.0356 0.152738 -124.275 -88.3484 120.198
RightUpLeg  4.25734 -8.40607 -6.01088
RightLeg  3.89566 8.81111 -0.711902
RightFoot  -4.14982 -0.163932 2.03545
RightToes  2.21189e-009 0 -3.6325e-017
Spine  4.60869 -0.279119 2.44875
Spine1  3.27748 0.572686 -3.60446
HEad  -6.36527 -6.67618 -3.81243
LeftShoulder1  0.219019 1.15185 -0.710669
LeftArm  -23.1252 -1.66662 -19.1966
LeftForeArm  0.494227 2.72763 3.3628
LeftHand  -0.0469714 2.28266 1.33498
RightShoulder  0.141897 -1.59462 -1.40186
RightArm  -11.5616 1.72651 13.938
RightForeArm  -4.53786 -2.39242 -3.40901
RightHand  -0.260854 5.97303 -2.99152
LeftUpLeg  4.02665 7.08272 3.81926
LeftLeg  1.70562 -3.16574 0.471996
LeftFoot  -1.37845 0.0789236 -1.00189
LeftToes  -3.01956e-010 3.07132e-011 1.04116e-011
68
root  12.5345 40.0354 0.154452 -124.261 -88.3281 120.218
RightUpLeg  4.22387 -8.40528 -6.02159
RightLeg  3.85719 8.81195 -0.720743
RightFoot  -4.1581 -0.174963 2.2066
RightToes  2.21189e-009 0 -3.6325e-017
Spine  4.51528 -0.258549 2.41413
Spine1  3.3558 0.578261 -3.54028
HEad  -6.22463 -6.66451 -3.97658
LeftShoulder1  0.221386 1.12642 -0.838076
LeftArm  -23.167 -1.64977 -19.1432
LeftForeArm  1.11303 2.72817 3.39733
LeftHand  -0.0410273 2.0719 1.06052
RightShoulder  0.141979 -1.6068 -1.31127
RightArm  -11.6574 1.7635 13.9052
RightForeArm  -4.57748 -2.38205 -3.43904
RightHand  -0.264776 6.02786 -3.0195
LeftUpLeg  3.94862 7.07035 3.78553
LeftLeg  1.74557 -3.12924 0.467931
LeftFoot  -1.35397 0.0764764 -0.951828
LeftToes  -3.01956e-010 3.07132e-011 1.04116e-011
69
root  12.5428 40.0351 0.152145 -122.693 -88.3687 118.66
RightUpLeg  4.19448 -8.38579 -5.99147
RightLeg  3.88282 8.73297 -0.729267
RightFoot  -4.13872 -0.170518 2.13763
RightToes  2.21189e-009 0 -3.6325e-017
Spine  4.57538 -0.279607 2.43298
Spine1  3.22287 0.555962 -3.53931
HEad  -6.03926 -6.50363 -4.01418
LeftShoulder1  0.222124 1.10262 -0.913293
LeftArm  -23.2654 -1.51674 -19.2973
LeftForeArm  1.1377 2.42833 3.41066
LeftHand  -0.0481213 2.3002 1.38404
RightShoulder  0.142384 -1.65815 -1.07452
RightArm  -11.4784 1.78589 13.8623
RightForeArm  -4.59491 -2.24388 -3.34614
RightHand  -0.27788 6.00499 -3.15754
LeftUpLeg  3.88383 7.0843 3.81653
LeftLeg  1.80484 -3.17278 0.439792
LeftFoot  -1.32447 0.0789711 -0.976831
LeftToes  -3.01956e-010 3.07132e-011 1.04116e-011
70
root  12.564 40.0363 0.151633 -118.927 -88.4101 114.891
RightUpLeg  4.17737 -8.44559 -6.04122
RightLeg  3.90661 8.6964 -0.664758
RightFoot  -4.10006 -0.169619 2.12369
RightToes  2.21189e-009 0 -3.6325e-017
Spine  4.55224 -0.286525 2.27843
Spine1  3.30595 0.488348 -3.2464
HEad  -5.96352 -6.29324 -4.07559
LeftShoulder1  0.217486 1.1921 -1.08668
LeftArm  -23.2046 -1.48937 -19.7689
LeftForeArm  1.44459 1.98795 3.28618
LeftHand  -0.0516849 2.88609 1.71361
RightShoulder  0.143297 -1.63216 -0.900138
RightArm  -11.8258 1.59064 13.9603
RightForeArm  -4.06896 -1.82586 -3.46264
RightHand  -0.266653 5.95851 -3.05369
LeftUpLeg  3.79782 7.03775 3.7785
LeftLeg  1.8545 -3.26024 0.454905
LeftFoot  -1.22124 0.0753357 -0.904754
LeftToes  -3.01956e-010 3.07132e-011 1.04116e-011
71
root  12.585 40.0413 0.147424 -115.311 -88.4606 111.327
RightUpLeg  4.09558 -8.46186 -6.02336
RightLeg  3.92284 8.58665 -0.638112
RightFoot  -4.01992 -0.163778 2.03307
RightToes  2.21189e-009 0 -3.6325e-017
Spine  4.33639 -0.27428 2.0553
Spine1  3.5788 0.401032 -2.76348
HEad  -6.03891 -5.86187 -4.32435
LeftShoulder1  0.21321 1.31854 -1.4736
LeftArm  -23.7303 -1.03897 -20.7614
LeftForeArm  3.26684 0.666745 3.40756
LeftHand  -0.0651055 2.61064 2.19391
RightShoulder  0.145826 -1.67366 -0.621767
RightArm  -12.3314 1.3107 14.2989
RightForeArm  -3.8017 -0.902064 -3.55387
RightHand  -0.274387 6.05211 -3.1162
LeftUpLeg  3.65691 7.08655 3.8221
LeftLeg  1.88521 -3.40622 0.377463
LeftFoot  -0.991192 0.0719332 -0.83443
LeftToes  -3.01956e-010 3.07132e-011 1.04116e-011
72
root  12.6156 40.0401 0.138349 -107.403 -88.5714 103.428
RightUpLeg  4.07686 -8.51334 -5.99965
RightLeg  3.92731 8.37966 -0.573899
RightFoot  -3.95753 -0.162357 2.01101
RightToes  2.21189e-009 0 -3.6325e-017
Spine  4.22741 -0.354671 2.07113
Spine1  3.73123 0.284616 -2.56176
HEad  -5.63392 -5.21894 -4.69586
LeftShoulder1  0.235458 1.24632 -2.24001
LeftArm  -24.7227 0.0954234 -21.9135
LeftForeArm  5.65367 -1.80286 3.61443
LeftHand  -0.0811852 2.21107 2.59693
RightShoulder  0.149886 -1.79537 0.0595373
RightArm  -12.8492 0.853221 14.9786
RightForeArm  -3.96048 0.701028 -3.5193
RightHand  -0.316938 5.65397 -3.64586
LeftUpLeg  3.47608 7.08282 3.88192
LeftLeg  2.0231 -3.67353 0.343302
LeftFoot  -0.811309 0.0748709 -0.860723
LeftToes  -3.01956e-010 3.07132e-011 1.04116e-011
73
root  12.6742 40.038 0.116672 -101.535 -88.6152 97.5319
RightUpLeg  3.99166 -8.56818 -5.99292
RightLeg  4.02638 8.33347 -0.482297
RightFoot  -3.8969 -0.162714 2.01655
RightToes  2.21189e-009 0 -3.6325e-017
Spine  4.42594 -0.460919 2.40557
Spine1  3.66526 0.271728 -2.94535
HEad  -4.99781 -4.34692 -4.80725
LeftShoulder1  0.249439 1.31124 -3.32192
LeftArm  -25.1719 1.35923 -23.1825
LeftForeArm  6.90355 -4.96728 3.30291
LeftHand  -0.106624 2.2888 3.62284
RightShoulder  0.153762 -1.90348 1.28104
RightArm  -13.5375 -0.292183 15.986
RightForeArm  -3.69806 3.61239 -3.41401
RightHand  -0.366205 6.0342 -4.04612
LeftUpLeg  3.2715 7.0878 3.93545
LeftLeg  2.21551 -3.80734 0.28695
LeftFoot  -0.624863 0.0680895 -0.733978
LeftToes  -3.01956e-010 3.07132e-011 1.04116e-011
74
root  12.7592 40.0312 0.0842248 -97.542 -88.5812 93.552
RightUpLeg  3.70844 -8.57133 -5.95818
RightLeg  4.31308 8.19234 -0.452519
RightFoot  -3.90231 -0.157813 1.94051
RightToes  2.21189e-009 0 -3.6325e-017
Spine  4.66289 -0.508506 2.73724
Spine1  3.65724 0.340347 -3.38698
HEad  -4.80489 -3.54544 -4.48658
LeftShoulder1  0.245277 1.55936 -4.71125
LeftArm  -25.9132 2.63621 -24.9072
LeftForeArm  9.10049 -8.60754 2.97853
LeftHand  -0.159635 1.46162 4.49454
RightShoulder  0.155512 -2.12469 3.25584
RightArm  -13.5725 -1.38826 16.9043
RightForeArm  -3.29305 6.99695 -2.96828
RightHand  -0.439275 6.04623 -4.78373
LeftUpLeg  2.93556 7.06194 3.93508
LeftLeg  2.5111 -3.83875 0.213177
LeftFoot  -0.446908 0.0701631 -0.742813
LeftToes  -3.01956e-010 3.07132e-011 1.04116e-011
75
root  12.8653 40.0309 0.0401021 -95.4173 -88.5689 91.3863
RightUpLeg  3.57003 -8.54458 -5.88326
RightLeg  4.35297 8.12377 -0.441279
RightFoot  -3.82009 -0.161496 1.99765
RightToes  2.21189e-009 0 -3.6325e-017
Spine  4.82494 -0.439397 3.00889
Spine1  4.0121 0.451909 -3.465
HEad  -4.47699 -2.87325 -4.89648
LeftShoulder1  0.247309 1.78722 -6.7271
LeftArm  -26.9314 4.00016 -26.8933
LeftForeArm  11.8635 -12.2649 2.05086
LeftHand  -0.256811 0.0493221 5.65357
RightShoulder  0.14529 -2.31598 4.45472
RightArm  -13.9868 -3.17757 19.0003
RightForeArm  -1.71597 10.943 -2.36414
RightHand  -0.517756 6.01174 -5.58463
LeftUpLeg  2.70983 7.0687 3.98435
LeftLeg  2.65426 -3.938 0.175945
LeftFoot  -0.172251 0.0679927 -0.68359
LeftToes  -3.01956e-010 3.07132e-011 1.04116e-011
76
root  12.9929 40.0258 -0.014932 -96.0828 -88.5677 92.0242
RightUpLeg  3.24144 -8.47871 -5.74354
RightLeg  4.63855 8.05642 -0.425211
RightFoot  -3.7386 -0.149848 1.81694
RightToes  2.21189e-009 0 -3.6325e-017
Spine  4.91095 -0.319904 3.48117
Spine1  4.53116 0.657572 -3.66562
HEad  -4.06086 -2.41817 -5.13379
LeftShoulder1  0.235567 2.06382 -8.90655
LeftArm  -29.4762 5.34658 -29.4183
LeftForeArm  17.7966 -15.9709 0.432366
LeftHand  -0.258367 0.239127 5.85103
RightShoulder  0.123427 -2.6011 6.05074
RightArm  -15.0607 -4.47622 21.1975
RightForeArm  1.40954 14.1493 -1.0907
RightHand  -0.598765 5.75135 -6.57545
LeftUpLeg  2.48209 7.06796 4.05539
LeftLeg  2.72833 -3.93737 0.165753
LeftFoot  0.0574476 0.0762957 -0.784978
LeftToes  -3.01956e-010 3.07132e-011 1.04116e-011
